<svg width="64" height="17" viewBox="0 0 64 17" fill="none" xmlns="http://www.w3.org/2000/svg">
<path d="M3.59015 1.04985L3.60392 0.994778L3.72783 0.870861C3.8288 0.632206 3.93895 0.489931 4.05828 0.444036C4.12253 0.425678 4.20514 0.40273 4.30611 0.375193C4.40708 0.347656 4.54018 0.278814 4.7054 0.168665C4.76965 0.0401585 4.90275 -0.0149158 5.10469 0.00344205C5.30663 0.0126215 5.50398 0.0768747 5.69674 0.196202C5.89867 0.30635 6.05931 0.462394 6.17864 0.664333C6.30714 0.866272 6.33927 1.07739 6.27502 1.29769C6.21076 1.5088 6.15569 1.66944 6.10979 1.77958C6.07308 1.88055 6.03177 1.97693 5.98588 2.06872C5.94916 2.16051 5.89867 2.26607 5.83442 2.3854C5.77935 2.49555 5.70592 2.647 5.61412 2.83976L5.15976 3.78979C5.11387 3.90912 5.07256 3.97796 5.03585 3.99632C5.00831 4.01468 4.98077 4.04681 4.95323 4.0927C5.03585 4.07434 5.10469 4.06057 5.15976 4.05139C5.21484 4.04222 5.26991 4.03304 5.32499 4.02386C5.45349 4.0055 5.60036 3.98714 5.76558 3.96878C5.86655 3.98714 5.95375 3.99632 6.02718 3.99632H6.21994C6.33009 3.99632 6.46319 4.02845 6.61923 4.0927C6.77527 4.14777 6.87624 4.24874 6.92214 4.39561C6.96803 4.54247 6.97262 4.69393 6.9359 4.84997C6.89919 4.99684 6.82576 5.13452 6.71561 5.26303C6.60546 5.39153 6.46319 5.46038 6.28878 5.46956C5.49021 5.68985 4.92111 5.80918 4.58148 5.82754L4.49887 5.92392V5.93769C4.40708 6.15798 4.30611 6.43794 4.19596 6.77757C4.095 7.10801 3.98026 7.47058 3.85175 7.86528C3.73242 8.2508 3.60851 8.65468 3.48 9.07691C3.35149 9.48997 3.2184 9.88926 3.08071 10.2748C2.64012 11.569 2.31885 12.2712 2.11691 12.3814C2.04348 12.4181 1.96546 12.441 1.88285 12.4502C1.80942 12.4686 1.76811 12.4823 1.75893 12.4915C1.43767 12.4732 1.17147 12.4089 0.960356 12.2988C0.749238 12.1886 0.606963 12.083 0.533531 11.9821C0.460099 11.8811 0.441741 11.7664 0.478457 11.6379C0.652859 10.0407 1.00166 8.29211 1.52487 6.39205C1.34129 6.39205 1.21278 6.41041 1.13935 6.44712C1.00166 6.52055 0.836439 6.56186 0.64368 6.57104H0.629911C0.483047 6.56186 0.349951 6.49302 0.230623 6.36451C0.111296 6.236 0.0378635 6.08914 0.0103264 5.92392C-0.0172107 5.75869 0.0103264 5.58888 0.0929377 5.41448C0.175549 5.24008 0.340772 5.10239 0.588605 5.00142C0.882334 4.91881 1.09804 4.84997 1.23573 4.7949C1.50192 4.68475 1.72222 4.60673 1.89662 4.56083C2.0802 4.51494 2.18117 4.4874 2.19953 4.47822C2.22706 4.45986 2.24542 4.44609 2.2546 4.43691C2.28214 4.41856 2.35098 4.40938 2.46113 4.40938C2.5162 4.14319 2.57128 3.8724 2.62635 3.59703C2.68142 3.32166 2.75027 3.0417 2.83288 2.75715C3.01646 2.09626 3.26888 1.52716 3.59015 1.04985Z" fill="#EEEEEE"/>
<path d="M13.3183 9.87549C13.3183 10.362 13.3779 10.7842 13.4973 11.1422C13.4973 11.4359 13.4284 11.6425 13.2907 11.7618C13.153 11.8903 12.9786 11.9545 12.7675 11.9545C12.5656 11.9637 12.3499 11.9224 12.1204 11.8306C11.8909 11.748 11.6936 11.6425 11.5284 11.5139C11.3723 11.3854 11.2713 11.2845 11.2255 11.211C11.1796 11.1284 11.1061 11.0091 11.0052 10.8531C10.8491 10.1279 10.7757 9.65519 10.7849 9.4349C10.794 9.2146 10.8124 9.02643 10.8399 8.87039C10.381 9.10904 10.0643 9.31557 9.8899 9.48997C9.56864 9.81124 9.29786 10.2243 9.07756 10.7291C9.00413 11.133 8.94446 11.3441 8.89857 11.3625C8.85267 11.39 8.79301 11.4084 8.71958 11.4176C8.64614 11.4267 8.56812 11.4589 8.48551 11.5139C8.4029 11.569 8.32488 11.6149 8.25145 11.6516C8.17801 11.6883 8.10458 11.7251 8.03115 11.7618C7.85675 11.8628 7.74201 11.9132 7.68694 11.9132C7.16373 12.0785 6.66347 12.005 6.18616 11.6929C5.98423 11.5553 5.82818 11.3809 5.71803 11.1697C5.60789 10.9494 5.58035 10.7154 5.63542 10.4675C6.03012 8.76942 6.57168 7.03917 7.26011 5.2768C7.68235 4.20285 8.08622 3.35379 8.47174 2.72961C8.56353 2.58275 8.65532 2.42671 8.74711 2.26148C8.93987 1.93104 9.07297 1.70615 9.1464 1.58683C9.05461 1.34817 9.05461 1.14164 9.1464 0.967241C9.24737 0.78366 9.39424 0.641385 9.587 0.540416C9.78893 0.430267 10.0184 0.356835 10.2754 0.320119C10.5324 0.283402 10.7757 0.278813 11.0052 0.30635C11.5559 0.388962 11.8496 0.604669 11.8863 0.953472C11.8313 1.11869 11.7532 1.31604 11.6523 1.54552C11.5605 1.775 11.4641 2.00906 11.3631 2.24772C11.2713 2.47719 11.1796 2.6929 11.0878 2.89484C11.0052 3.09678 10.9409 3.24823 10.895 3.3492C10.8583 3.44099 10.7986 3.60621 10.716 3.84487C10.6426 4.07434 10.56 4.32677 10.4682 4.60214C10.3856 4.86833 10.3075 5.11616 10.2341 5.34564L10.0689 5.82754C10.0322 5.95604 9.97252 6.15339 9.8899 6.41959C9.80729 6.6766 9.72009 6.99786 9.6283 7.38338C9.74763 7.29159 9.84401 7.18603 9.91744 7.06671C10.0001 6.9382 10.1148 6.79593 10.2617 6.63988C10.4177 6.48384 10.615 6.33238 10.8537 6.18552C11.1015 6.02948 11.3631 5.92851 11.6385 5.88261C12.2351 5.78164 12.7767 5.9744 13.2632 6.46089C13.6304 6.82805 13.7451 7.37879 13.6074 8.11312C13.5523 8.41602 13.4835 8.72352 13.4009 9.03561C13.3275 9.33852 13.2999 9.61848 13.3183 9.87549Z" fill="#EEEEEE"/>
<path d="M15.7804 5.30433C16.0374 5.0565 16.3219 4.91422 16.634 4.87751C16.9553 4.83161 17.2352 4.86374 17.4739 4.97389C17.7217 5.08404 17.9007 5.26303 18.0109 5.51086C18.1302 5.74952 18.1164 6.02489 17.9696 6.33697C17.6575 6.79593 17.4096 7.29159 17.2261 7.82398C17.0425 8.35636 16.8727 8.89333 16.7166 9.4349C17.5611 8.90251 18.2679 8.10853 18.837 7.05294C19.0022 6.74085 19.1812 6.42417 19.374 6.10291L19.5805 5.71739L19.9935 5.0565C20.0486 4.8821 20.145 4.77195 20.2827 4.72605C20.4204 4.67098 20.5672 4.64344 20.7233 4.64344C20.8885 4.64344 21.0537 4.64803 21.2189 4.65721C21.3842 4.65721 21.5356 4.61132 21.6733 4.51953C21.811 4.42774 21.9716 4.39561 22.1552 4.42315C22.348 4.4415 22.5178 4.50117 22.6646 4.60214C22.8207 4.70311 22.9354 4.82702 23.0089 4.97389C23.0915 5.11157 23.1006 5.24926 23.0364 5.38694C22.6509 6.21306 22.1231 7.75055 21.453 9.99941C21.297 10.5043 21.1501 10.9265 21.0124 11.2661C20.7829 11.5507 20.4938 11.7434 20.145 11.8444C19.7962 11.9454 19.4657 11.9729 19.1537 11.927C18.8508 11.8903 18.6075 11.7847 18.4239 11.6103C18.2403 11.4451 18.199 11.234 18.3 10.977C18.043 11.1881 17.7768 11.3809 17.5014 11.5553C17.2261 11.7297 16.891 11.8444 16.4963 11.8995C16.1108 11.9545 15.7391 11.9362 15.3811 11.8444C15.0231 11.7618 14.7156 11.5966 14.4586 11.3487C14.2108 11.1009 14.0777 10.7704 14.0593 10.3574C14.0042 8.9071 14.5779 7.22275 15.7804 5.30433Z" fill="#EEEEEE"/>
<path d="M24.2542 5.35941C24.2725 5.18501 24.3827 5.04273 24.5846 4.93258C24.7865 4.82243 25.0114 4.76736 25.2593 4.76736C25.5071 4.76736 25.7457 4.82702 25.9752 4.94635C26.2139 5.0565 26.3745 5.24926 26.4571 5.52463C27.2373 4.84538 27.9487 4.58378 28.5912 4.73982C28.8115 4.78572 28.9997 4.91422 29.1558 5.12534C29.6239 4.67557 30.1425 4.38184 30.7116 4.24415C31.4276 4.21662 31.9416 4.38184 32.2537 4.73982C32.2996 4.78572 32.3455 4.8362 32.3914 4.89128C32.5199 5.02896 32.5933 5.12075 32.6117 5.16665C32.7769 5.42366 32.8228 6.01571 32.7493 6.94279C32.6484 8.14524 32.4189 9.35229 32.0609 10.5639C31.8682 11.1789 31.6938 11.4956 31.5377 11.5139C31.4459 11.5323 31.3587 11.5323 31.2761 11.5139C31.2027 11.4956 31.1338 11.4818 31.0696 11.4726C31.0145 11.4726 30.9824 11.5277 30.9732 11.6379C30.7896 11.8765 30.5097 11.9958 30.1333 11.9958C29.7662 11.9958 29.4541 11.8811 29.1971 11.6516C28.9125 11.413 28.8115 11.133 28.8942 10.8118C28.9859 10.4813 29.0869 10.1463 29.1971 9.80665C29.3072 9.45784 29.4265 9.09986 29.555 8.7327C29.7753 8.09017 30.0186 7.4201 30.2848 6.72249C30.092 6.94279 29.8304 7.36044 29.5 7.97543C29.1695 8.58125 28.963 8.94382 28.8804 9.06315C28.7243 9.37523 28.5958 9.62307 28.4949 9.80665C28.3939 9.98105 28.2562 10.1233 28.0818 10.2335C27.9166 10.3344 27.7605 10.3987 27.6137 10.4262C27.476 10.4538 27.3429 10.4584 27.2144 10.44C26.9115 10.3941 26.6958 10.2656 26.5673 10.0545C26.5397 9.98105 26.5122 9.90762 26.4847 9.83418C26.4571 9.76075 26.4342 9.65978 26.4158 9.53128C26.3883 9.24673 26.425 8.78319 26.526 8.14065L26.4984 8.18196C26.6086 8.07181 26.6453 8.04427 26.6086 8.09935C26.2414 8.62255 26.0211 8.95759 25.9477 9.10445C25.8743 9.25132 25.7962 9.41654 25.7136 9.60012C25.631 9.77452 25.5346 9.98105 25.4245 10.2197C25.3143 10.4492 25.2271 10.6557 25.1629 10.8393C25.0986 11.0229 25.0206 11.2019 24.9288 11.3763C24.5158 12.0922 23.7906 12.3814 22.7534 12.2437C22.5331 12.2161 22.3449 12.1611 22.1889 12.0785C22.0328 12.005 21.9686 11.8903 21.9961 11.7342C22.0695 11.3671 22.2394 10.7567 22.5056 9.90303C23.0288 8.21409 23.3408 7.12637 23.4418 6.63988C23.5061 6.47466 23.5611 6.30485 23.607 6.13045C23.6621 5.95604 23.7172 5.80459 23.7723 5.67608C23.8824 5.37318 24.043 5.26762 24.2542 5.35941ZM29.0318 8.76024V8.78778C29.0502 8.75106 29.0502 8.74188 29.0318 8.76024Z" fill="#EEEEEE"/>
<path d="M35.5251 11.39L35.1809 11.7067C34.9973 11.8352 34.8183 11.9132 34.6439 11.9408L34.6577 11.9545L34.5888 12.0096C33.9371 12.0647 33.4552 11.9224 33.1432 11.5828C32.8219 11.2248 32.753 10.7567 32.9366 10.1784C33.3405 7.89282 33.905 5.77246 34.6302 3.81733C35.1166 2.49555 35.5848 1.60977 36.0345 1.16C36.2732 0.930525 36.4935 0.861682 36.6954 0.953472C36.7505 0.733175 36.8469 0.563363 36.9846 0.444036C37.1223 0.315529 37.2737 0.242097 37.4389 0.223739C37.6042 0.196202 37.7648 0.223739 37.9208 0.30635C38.0769 0.379783 38.1962 0.517468 38.2788 0.719407C38.3706 0.921345 38.4073 1.11869 38.389 1.31145C38.3798 1.49503 38.3385 1.67862 38.2651 1.8622C38.2008 2.0366 38.1182 2.211 38.0172 2.3854C37.9254 2.5598 37.8382 2.7342 37.7556 2.90861C37.1682 4.32218 36.7505 5.36859 36.5027 6.04783L36.6266 5.96522C37.2324 5.56135 37.8795 5.38235 38.568 5.42825C38.8709 5.45579 39.1416 5.5384 39.3803 5.67608C39.6281 5.80459 39.8071 6.00194 39.9173 6.26813C40.0366 6.53432 40.0825 6.87854 40.055 7.30077C40.0366 7.71383 39.9586 8.14524 39.8209 8.59502C39.6832 9.03561 39.495 9.46702 39.2564 9.88926C39.0269 10.3115 38.7699 10.6787 38.4853 10.9907C37.8428 11.6975 37.2232 11.9637 36.6266 11.7893C36.3696 11.826 36.0713 11.7067 35.7316 11.4313C35.6582 11.3671 35.5894 11.3166 35.5251 11.2799V11.39ZM35.8969 10.3987C36.0345 10.2427 36.2686 9.94892 36.5991 9.51751C36.9387 9.08609 37.1636 8.75106 37.2737 8.5124C37.393 8.26457 37.3655 8.03509 37.1911 7.82398C37.0167 7.60368 36.7964 7.7689 36.5302 8.31964C36.108 9.20083 35.8969 9.89385 35.8969 10.3987Z" fill="#EEEEEE"/>
<path d="M45.1806 11.6792C44.8226 11.9729 44.3958 12.1932 43.9002 12.3401C43.4137 12.4961 42.9226 12.5787 42.4269 12.5879C41.9313 12.5971 41.4677 12.5374 41.0363 12.4089C40.6049 12.2804 40.2653 12.0785 40.0174 11.8031C39.7237 11.491 39.6227 11.1789 39.7145 10.8668C39.7604 10.7383 39.843 10.6374 39.9623 10.5639C40.0725 10.4905 40.2102 10.4721 40.3754 10.5088C40.4856 10.518 40.5636 10.4905 40.6095 10.4262C40.6645 10.3528 40.7104 10.2748 40.7472 10.1922C40.7839 10.1004 40.8252 10.0178 40.8711 9.94433C40.917 9.86172 40.9904 9.82042 41.0914 9.82042C42.7069 9.86631 43.5468 9.72404 43.611 9.39359C43.5009 9.29262 43.3632 9.20542 43.198 9.13199C43.0419 9.05856 42.8813 8.98512 42.7161 8.91169C42.3122 8.72811 42.0414 8.52617 41.9037 8.30588C41.7293 8.21409 41.5962 7.99379 41.5044 7.64499C41.4585 7.48894 41.4356 7.32831 41.4356 7.16309C41.4356 6.99786 41.4631 6.84641 41.5182 6.70872C41.4907 6.35074 41.711 5.95604 42.1791 5.52463C42.3076 5.4053 42.4682 5.2768 42.661 5.13911C42.8537 5.00142 43.1429 4.86833 43.5284 4.73982C43.9139 4.61132 44.2948 4.51953 44.6712 4.46445C45.0567 4.4002 45.4009 4.37725 45.7038 4.39561C46.0159 4.41397 46.2362 4.4874 46.3647 4.61591C46.5024 4.74441 46.608 4.90504 46.6814 5.0978C46.764 5.29056 46.7915 5.47873 46.764 5.66231C46.6906 6.07537 46.351 6.35992 45.7451 6.51596C44.9833 6.62611 44.6161 6.72708 44.6437 6.81887C44.6437 6.83723 44.6115 6.86018 44.5473 6.88772C45.2541 7.3742 45.7451 7.85151 46.0205 8.31964C46.3968 8.96218 46.4519 9.67814 46.1857 10.4675C46.2316 10.7246 46.0021 11.0458 45.4973 11.4313C45.378 11.5231 45.2724 11.6057 45.1806 11.6792Z" fill="#EEEEEE"/>
<path d="M48.9513 5.30433C49.2083 5.0565 49.4928 4.91422 49.8049 4.87751C50.1262 4.83161 50.4061 4.86374 50.6448 4.97389C50.8926 5.08404 51.0716 5.26303 51.1818 5.51086C51.3011 5.74952 51.2873 6.02489 51.1405 6.33697C50.8284 6.79593 50.5805 7.29159 50.397 7.82398C50.2134 8.35636 50.0436 8.89333 49.8875 9.4349C50.732 8.90251 51.4388 8.10853 52.0079 7.05294C52.1731 6.74085 52.3521 6.42417 52.5449 6.10291L52.7514 5.71739L53.1644 5.0565C53.2195 4.8821 53.3159 4.77195 53.4536 4.72605C53.5913 4.67098 53.7381 4.64344 53.8942 4.64344C54.0594 4.64344 54.2246 4.64803 54.3898 4.65721C54.5551 4.65721 54.7065 4.61132 54.8442 4.51953C54.9819 4.42774 55.1425 4.39561 55.3261 4.42315C55.5189 4.4415 55.6887 4.50117 55.8355 4.60214C55.9916 4.70311 56.1063 4.82702 56.1798 4.97389C56.2624 5.11157 56.2715 5.24926 56.2073 5.38694C55.8218 6.21306 55.294 7.75055 54.6239 9.99941C54.4679 10.5043 54.321 10.9265 54.1833 11.2661C53.9538 11.5507 53.6647 11.7434 53.3159 11.8444C52.9671 11.9454 52.6367 11.9729 52.3246 11.927C52.0217 11.8903 51.7784 11.7847 51.5948 11.6103C51.4112 11.4451 51.3699 11.234 51.4709 10.977C51.2139 11.1881 50.9477 11.3809 50.6723 11.5553C50.397 11.7297 50.0619 11.8444 49.6672 11.8995C49.2817 11.9545 48.91 11.9362 48.552 11.8444C48.194 11.7618 47.8865 11.5966 47.6295 11.3487C47.3817 11.1009 47.2486 10.7704 47.2302 10.3574C47.1751 8.9071 47.7488 7.22275 48.9513 5.30433Z" fill="#03CF9F"/>
<path d="M58.8294 5.71739C59.2884 5.02896 59.9263 4.61591 60.7433 4.47822C61.0095 4.43232 61.3353 4.4002 61.7208 4.38184C62.1155 4.36348 62.4506 4.45068 62.7259 4.64344C63.0105 4.8362 63.2216 5.08404 63.3593 5.38694C63.598 5.92851 63.6347 6.59399 63.4694 7.38338C63.3777 7.8148 63.2675 8.29211 63.139 8.81531C63.0105 9.32934 62.8177 9.83877 62.5607 10.3436C62.3037 10.8485 61.9687 11.3212 61.5556 11.7618C61.1426 12.2024 60.6056 12.5512 59.9447 12.8082C59.55 12.9642 59.2012 13.0193 58.8983 12.9734C58.6046 12.9367 58.3843 12.877 58.2374 12.7944C58.0905 12.7118 57.9896 12.5925 57.9345 12.4364C57.7509 12.9596 57.5765 13.4874 57.4113 14.0198C57.2552 14.5614 57.0441 15.0754 56.7779 15.5619C56.5944 15.6812 56.3695 15.7684 56.1033 15.8235C55.8371 15.8878 55.5755 15.874 55.3185 15.7822C55.0615 15.6996 54.8779 15.5435 54.7677 15.3141C54.6484 15.0938 54.5887 14.8505 54.5887 14.5843C54.5887 14.2264 54.6759 13.7903 54.8503 13.2763C55.1074 12.5145 55.3185 11.927 55.4837 11.5139C55.6397 11.1009 55.7407 10.8347 55.7866 10.7154C55.8325 10.5869 55.8784 10.4538 55.9243 10.3161C56.1262 9.7837 56.2731 9.35229 56.3649 9.02184C56.4658 8.68222 56.5576 8.38849 56.6402 8.14065V8.12688C56.732 7.72301 56.8743 7.29618 57.0671 6.84641C57.269 6.38746 57.4067 6.1075 57.4801 6.00653C57.6362 5.85049 57.7968 5.75411 57.962 5.71739C58.1273 5.68067 58.3154 5.65773 58.5265 5.64855H58.5678L58.8294 5.71739ZM59.8759 8.01674C59.7657 8.2095 59.5821 8.38849 59.3251 8.55371L59.2012 8.84285C59.1094 9.0815 59.0222 9.32475 58.9396 9.57258C58.857 9.82042 58.7652 10.0637 58.6642 10.3023C58.756 10.3941 58.8249 10.4813 58.8708 10.5639C59.3848 10.1141 59.8529 9.5221 60.2751 8.78778C60.4404 8.48487 60.5459 8.18196 60.5918 7.87905C60.6469 7.57614 60.6607 7.38338 60.6331 7.30077C60.6056 7.21816 60.5597 7.17686 60.4954 7.17686C60.4404 7.17686 60.3807 7.19521 60.3165 7.23193C60.2614 7.25947 60.2155 7.29159 60.1788 7.32831C60.1512 7.35585 60.1558 7.35585 60.1925 7.32831C60.0916 7.44764 60.0181 7.5532 59.9722 7.64499C59.9263 7.7276 59.8942 7.85151 59.8759 8.01674Z" fill="#03CF9F"/>
<path d="M29.2652 14.0909C34.5739 14.0371 39.7207 14.0484 43.901 14.1661C48.0299 14.2824 51.3464 14.5033 52.901 14.9064L52.399 16.8419C51.1085 16.5073 48.0404 16.2833 43.8453 16.1651C39.7013 16.0485 34.5828 16.0372 29.2857 16.0909C18.6909 16.1984 7.4176 16.5668 1.85995 16.8732L1.75058 14.8761C7.34537 14.5677 18.6489 14.1986 29.2652 14.0909Z" fill="#03CF9F"/>
</svg>
